<svg width="303" height="87" viewBox="0 0 303 87" fill="none" xmlns="http://www.w3.org/2000/svg">
<path d="M87.104 47.168C86.4853 47.5093 85.6213 47.7973 84.512 48.032C83.4027 48.2667 82.4427 48.384 81.632 48.384C80.8213 48.384 80.128 48.352 79.552 48.288C78.9973 48.2453 78.496 48.1493 78.048 48C77.6 47.8293 77.2053 47.6693 76.864 47.52C76.5227 47.3707 76.2133 47.1147 75.936 46.752C75.68 46.3893 75.4667 46.08 75.296 45.824C75.1253 45.568 74.976 45.152 74.848 44.576C74.7413 44 74.656 43.52 74.592 43.136C74.528 42.7307 74.4853 42.112 74.464 41.28C74.4213 39.6587 74.4 38.1333 74.4 36.704C74.4 35.2747 74.4107 34.1973 74.432 33.472C74.4533 32.7467 74.496 31.872 74.56 30.848C74.6453 29.824 74.784 29.0987 74.976 28.672C75.168 28.224 75.424 27.7227 75.744 27.168C76.064 26.592 76.48 26.1973 76.992 25.984C78.3573 25.472 79.8507 25.216 81.472 25.216C83.1147 25.216 84.7147 25.4507 86.272 25.92L85.792 28C84.3627 27.6587 83.0827 27.488 81.952 27.488C80.8213 27.488 79.968 27.5627 79.392 27.712C78.8373 27.8613 78.4107 28.032 78.112 28.224C77.8133 28.416 77.5893 28.7253 77.44 29.152C77.312 29.5787 77.2373 29.952 77.216 30.272C77.1947 30.5707 77.184 31.04 77.184 31.68V41.824C77.184 43.5307 77.3547 44.5653 77.696 44.928C78.2507 45.504 78.848 45.8453 79.488 45.952C80.128 46.0587 80.896 46.112 81.792 46.112C82.688 46.112 83.6053 46.016 84.544 45.824V38.56H81.504V36.64H87.104V47.168ZM95.1603 48H92.5363V31.36H93.9763L94.4883 33.312C96.0456 31.7973 97.9016 31.0293 100.056 31.008L99.8003 33.312C97.8589 33.312 96.3123 33.888 95.1603 35.04V48ZM105.056 35.904V39.2C107.232 39.2 108.523 39.1253 108.928 38.976C109.355 38.8053 109.728 38.6347 110.048 38.464C110.624 38.1653 110.912 37.5787 110.912 36.704V35.968C110.912 34.9227 110.752 34.1867 110.432 33.76C110.112 33.3333 109.344 33.12 108.128 33.12C106.933 33.12 106.123 33.3653 105.696 33.856C105.269 34.3253 105.056 35.008 105.056 35.904ZM105.344 31.424C105.707 31.2533 106.123 31.1467 106.592 31.104C107.061 31.04 107.723 31.008 108.576 31.008C109.451 31.008 110.261 31.1253 111.008 31.36C111.755 31.5947 112.299 31.968 112.64 32.48C113.003 32.9707 113.237 33.4827 113.344 34.016C113.472 34.528 113.536 35.1253 113.536 35.808C113.536 36.4693 113.493 37.024 113.408 37.472C113.323 37.8987 113.216 38.272 113.088 38.592C112.981 38.912 112.789 39.2 112.512 39.456C112.256 39.6907 112.011 39.8933 111.776 40.064C111.563 40.2347 111.232 40.384 110.784 40.512C110.357 40.6187 109.984 40.704 109.664 40.768C109.344 40.832 108.885 40.8853 108.288 40.928C107.392 40.992 106.315 41.024 105.056 41.024V43.424C105.056 44.5333 105.291 45.2907 105.76 45.696C106.229 46.08 106.944 46.272 107.904 46.272C109.675 46.272 111.264 45.9733 112.672 45.376L113.184 46.976C111.584 47.9147 109.813 48.384 107.872 48.384C106.848 48.384 106.016 48.2667 105.376 48.032C104.757 47.8187 104.309 47.5733 104.032 47.296C103.776 47.0187 103.552 46.7627 103.36 46.528C103.168 46.2933 103.008 45.952 102.88 45.504C102.773 45.056 102.688 44.672 102.624 44.352C102.56 44.0107 102.517 43.5413 102.496 42.944C102.432 41.92 102.4 40.96 102.4 40.064V38.144C102.4 37.0133 102.443 36.2027 102.528 35.712C102.613 35.2213 102.699 34.7627 102.784 34.336C102.869 33.888 102.987 33.5573 103.136 33.344C103.285 33.1093 103.456 32.8427 103.648 32.544C103.861 32.2453 104.107 32.0213 104.384 31.872C104.683 31.7227 105.003 31.5733 105.344 31.424ZM120.337 35.904V39.2C122.513 39.2 123.804 39.1253 124.209 38.976C124.636 38.8053 125.009 38.6347 125.329 38.464C125.905 38.1653 126.193 37.5787 126.193 36.704V35.968C126.193 34.9227 126.033 34.1867 125.713 33.76C125.393 33.3333 124.625 33.12 123.409 33.12C122.215 33.12 121.404 33.3653 120.977 33.856C120.551 34.3253 120.337 35.008 120.337 35.904ZM120.625 31.424C120.988 31.2533 121.404 31.1467 121.873 31.104C122.343 31.04 123.004 31.008 123.857 31.008C124.732 31.008 125.543 31.1253 126.289 31.36C127.036 31.5947 127.58 31.968 127.921 32.48C128.284 32.9707 128.519 33.4827 128.625 34.016C128.753 34.528 128.817 35.1253 128.817 35.808C128.817 36.4693 128.775 37.024 128.689 37.472C128.604 37.8987 128.497 38.272 128.369 38.592C128.263 38.912 128.071 39.2 127.793 39.456C127.537 39.6907 127.292 39.8933 127.057 40.064C126.844 40.2347 126.513 40.384 126.065 40.512C125.639 40.6187 125.265 40.704 124.945 40.768C124.625 40.832 124.167 40.8853 123.569 40.928C122.673 40.992 121.596 41.024 120.337 41.024V43.424C120.337 44.5333 120.572 45.2907 121.041 45.696C121.511 46.08 122.225 46.272 123.185 46.272C124.956 46.272 126.545 45.9733 127.953 45.376L128.465 46.976C126.865 47.9147 125.095 48.384 123.153 48.384C122.129 48.384 121.297 48.2667 120.657 48.032C120.039 47.8187 119.591 47.5733 119.313 47.296C119.057 47.0187 118.833 46.7627 118.641 46.528C118.449 46.2933 118.289 45.952 118.161 45.504C118.055 45.056 117.969 44.672 117.905 44.352C117.841 44.0107 117.799 43.5413 117.777 42.944C117.713 41.92 117.681 40.96 117.681 40.064V38.144C117.681 37.0133 117.724 36.2027 117.809 35.712C117.895 35.2213 117.98 34.7627 118.065 34.336C118.151 33.888 118.268 33.5573 118.417 33.344C118.567 33.1093 118.737 32.8427 118.929 32.544C119.143 32.2453 119.388 32.0213 119.665 31.872C119.964 31.7227 120.284 31.5733 120.625 31.424ZM144.547 36.288V48H141.923V35.936C141.923 34.8907 141.763 34.1547 141.443 33.728C141.123 33.3013 140.355 33.088 139.139 33.088C137.944 33.088 137.133 33.3333 136.707 33.824C136.28 34.2933 136.067 34.976 136.067 35.872V48H133.443V31.36H134.883L135.299 32.928C135.704 32.352 136.237 31.9147 136.899 31.616C137.56 31.296 138.104 31.1147 138.531 31.072C138.979 31.0293 139.597 31.008 140.387 31.008C141.197 31.008 141.901 31.1467 142.499 31.424C143.096 31.7013 143.533 32.1067 143.811 32.64C144.301 33.5573 144.547 34.7733 144.547 36.288ZM157.974 48V25.6H160.726V45.76H167.958V48H157.974ZM171.474 31.36H174.098V48H171.474V31.36ZM172.082 25.088C172.231 25.0667 172.466 25.056 172.786 25.056C173.106 25.056 173.34 25.0667 173.49 25.088C173.639 25.1093 173.799 25.1733 173.97 25.28C174.29 25.4293 174.45 25.8027 174.45 26.4C174.45 26.976 174.418 27.3813 174.354 27.616C174.29 27.8293 174.162 27.9893 173.97 28.096C173.799 28.1813 173.639 28.2347 173.49 28.256C173.34 28.2773 173.106 28.288 172.786 28.288C172.466 28.288 172.231 28.2773 172.082 28.256C171.932 28.2347 171.772 28.1813 171.602 28.096C171.282 27.9253 171.122 27.552 171.122 26.976C171.122 26.3787 171.154 25.9733 171.218 25.76C171.282 25.5253 171.399 25.3653 171.57 25.28C171.762 25.1733 171.932 25.1093 172.082 25.088ZM186.025 26.496C185.086 26.496 184.414 26.7733 184.009 27.328C183.603 27.8613 183.401 28.8427 183.401 30.272V31.36H186.409V33.248H183.401V48H180.777V33.248H178.569V31.84L180.777 31.392C180.841 28.5333 181.257 26.688 182.025 25.856C182.729 25.0667 183.774 24.672 185.161 24.672C185.758 24.672 186.537 24.7573 187.497 24.928L187.305 26.592C186.814 26.528 186.387 26.496 186.025 26.496ZM192.306 35.904V39.2C194.482 39.2 195.773 39.1253 196.178 38.976C196.605 38.8053 196.978 38.6347 197.298 38.464C197.874 38.1653 198.162 37.5787 198.162 36.704V35.968C198.162 34.9227 198.002 34.1867 197.682 33.76C197.362 33.3333 196.594 33.12 195.378 33.12C194.183 33.12 193.373 33.3653 192.946 33.856C192.519 34.3253 192.306 35.008 192.306 35.904ZM192.594 31.424C192.957 31.2533 193.373 31.1467 193.842 31.104C194.311 31.04 194.973 31.008 195.826 31.008C196.701 31.008 197.511 31.1253 198.258 31.36C199.005 31.5947 199.549 31.968 199.89 32.48C200.253 32.9707 200.487 33.4827 200.594 34.016C200.722 34.528 200.786 35.1253 200.786 35.808C200.786 36.4693 200.743 37.024 200.658 37.472C200.573 37.8987 200.466 38.272 200.338 38.592C200.231 38.912 200.039 39.2 199.762 39.456C199.506 39.6907 199.261 39.8933 199.026 40.064C198.813 40.2347 198.482 40.384 198.034 40.512C197.607 40.6187 197.234 40.704 196.914 40.768C196.594 40.832 196.135 40.8853 195.538 40.928C194.642 40.992 193.565 41.024 192.306 41.024V43.424C192.306 44.5333 192.541 45.2907 193.01 45.696C193.479 46.08 194.194 46.272 195.154 46.272C196.925 46.272 198.514 45.9733 199.922 45.376L200.434 46.976C198.834 47.9147 197.063 48.384 195.122 48.384C194.098 48.384 193.266 48.2667 192.626 48.032C192.007 47.8187 191.559 47.5733 191.282 47.296C191.026 47.0187 190.802 46.7627 190.61 46.528C190.418 46.2933 190.258 45.952 190.13 45.504C190.023 45.056 189.938 44.672 189.874 44.352C189.81 44.0107 189.767 43.5413 189.746 42.944C189.682 41.92 189.65 40.96 189.65 40.064V38.144C189.65 37.0133 189.693 36.2027 189.778 35.712C189.863 35.2213 189.949 34.7627 190.034 34.336C190.119 33.888 190.237 33.5573 190.386 33.344C190.535 33.1093 190.706 32.8427 190.898 32.544C191.111 32.2453 191.357 32.0213 191.634 31.872C191.933 31.7227 192.253 31.5733 192.594 31.424ZM225.635 47.168C225.017 47.5093 224.153 47.7973 223.043 48.032C221.934 48.2667 220.974 48.384 220.163 48.384C219.353 48.384 218.659 48.352 218.083 48.288C217.529 48.2453 217.027 48.1493 216.579 48C216.131 47.8293 215.737 47.6693 215.395 47.52C215.054 47.3707 214.745 47.1147 214.467 46.752C214.211 46.3893 213.998 46.08 213.827 45.824C213.657 45.568 213.507 45.152 213.379 44.576C213.273 44 213.187 43.52 213.123 43.136C213.059 42.7307 213.017 42.112 212.995 41.28C212.953 39.6587 212.931 38.1333 212.931 36.704C212.931 35.2747 212.942 34.1973 212.963 33.472C212.985 32.7467 213.027 31.872 213.091 30.848C213.177 29.824 213.315 29.0987 213.507 28.672C213.699 28.224 213.955 27.7227 214.275 27.168C214.595 26.592 215.011 26.1973 215.523 25.984C216.889 25.472 218.382 25.216 220.003 25.216C221.646 25.216 223.246 25.4507 224.803 25.92L224.323 28C222.894 27.6587 221.614 27.488 220.483 27.488C219.353 27.488 218.499 27.5627 217.923 27.712C217.369 27.8613 216.942 28.032 216.643 28.224C216.345 28.416 216.121 28.7253 215.971 29.152C215.843 29.5787 215.769 29.952 215.747 30.272C215.726 30.5707 215.715 31.04 215.715 31.68V41.824C215.715 43.5307 215.886 44.5653 216.227 44.928C216.782 45.504 217.379 45.8453 218.019 45.952C218.659 46.0587 219.427 46.112 220.323 46.112C221.219 46.112 222.137 46.016 223.075 45.824V38.56H220.035V36.64H225.635V47.168ZM241.532 48H240.092L239.676 46.432C239.164 47.008 238.588 47.456 237.948 47.776C237.308 48.0747 236.774 48.2453 236.348 48.288C235.921 48.352 235.313 48.384 234.524 48.384C233.756 48.384 233.073 48.2453 232.476 47.968C231.878 47.6907 231.43 47.2747 231.132 46.72C230.662 45.824 230.428 44.6187 230.428 43.104C230.428 41.184 230.982 39.936 232.092 39.36C232.54 39.1467 232.934 38.976 233.276 38.848C233.638 38.72 234.172 38.624 234.876 38.56C235.601 38.496 236.209 38.464 236.7 38.464C237.212 38.4427 237.948 38.4213 238.908 38.4V36C238.908 34.8907 238.673 34.144 238.204 33.76C237.734 33.3547 236.881 33.152 235.644 33.152C234.406 33.152 233.062 33.3867 231.612 33.856L231.1 32.256C232.764 31.4453 234.524 31.04 236.38 31.04C238.598 31.04 240.028 31.488 240.668 32.384C241.009 32.8747 241.233 33.3867 241.34 33.92C241.468 34.4533 241.532 35.1467 241.532 36V48ZM238.908 43.52V40.224C236.732 40.224 235.43 40.3093 235.004 40.48C234.598 40.6293 234.236 40.7893 233.916 40.96C233.34 41.2587 233.052 41.8453 233.052 42.72V43.456C233.052 44.5013 233.212 45.2373 233.532 45.664C233.852 46.0907 234.609 46.304 235.804 46.304C237.02 46.304 237.841 46.0693 238.268 45.6C238.694 45.1093 238.908 44.416 238.908 43.52ZM249.598 48H246.974V24.96H249.598V48ZM257.973 48H255.349V24.96H257.973V48ZM265.9 35.904V39.2C268.076 39.2 269.366 39.1253 269.772 38.976C270.198 38.8053 270.572 38.6347 270.892 38.464C271.468 38.1653 271.756 37.5787 271.756 36.704V35.968C271.756 34.9227 271.596 34.1867 271.276 33.76C270.956 33.3333 270.188 33.12 268.972 33.12C267.777 33.12 266.966 33.3653 266.54 33.856C266.113 34.3253 265.9 35.008 265.9 35.904ZM266.188 31.424C266.55 31.2533 266.966 31.1467 267.436 31.104C267.905 31.04 268.566 31.008 269.42 31.008C270.294 31.008 271.105 31.1253 271.852 31.36C272.598 31.5947 273.142 31.968 273.484 32.48C273.846 32.9707 274.081 33.4827 274.188 34.016C274.316 34.528 274.38 35.1253 274.38 35.808C274.38 36.4693 274.337 37.024 274.252 37.472C274.166 37.8987 274.06 38.272 273.932 38.592C273.825 38.912 273.633 39.2 273.356 39.456C273.1 39.6907 272.854 39.8933 272.62 40.064C272.406 40.2347 272.076 40.384 271.628 40.512C271.201 40.6187 270.828 40.704 270.508 40.768C270.188 40.832 269.729 40.8853 269.132 40.928C268.236 40.992 267.158 41.024 265.9 41.024V43.424C265.9 44.5333 266.134 45.2907 266.604 45.696C267.073 46.08 267.788 46.272 268.748 46.272C270.518 46.272 272.108 45.9733 273.516 45.376L274.028 46.976C272.428 47.9147 270.657 48.384 268.716 48.384C267.692 48.384 266.86 48.2667 266.22 48.032C265.601 47.8187 265.153 47.5733 264.876 47.296C264.62 47.0187 264.396 46.7627 264.204 46.528C264.012 46.2933 263.852 45.952 263.724 45.504C263.617 45.056 263.532 44.672 263.468 44.352C263.404 44.0107 263.361 43.5413 263.34 42.944C263.276 41.92 263.244 40.96 263.244 40.064V38.144C263.244 37.0133 263.286 36.2027 263.372 35.712C263.457 35.2213 263.542 34.7627 263.628 34.336C263.713 33.888 263.83 33.5573 263.98 33.344C264.129 33.1093 264.3 32.8427 264.492 32.544C264.705 32.2453 264.95 32.0213 265.228 31.872C265.526 31.7227 265.846 31.5733 266.188 31.424ZM281.629 48H279.005V31.36H280.445L280.957 33.312C282.514 31.7973 284.37 31.0293 286.525 31.008L286.269 33.312C284.328 33.312 282.781 33.888 281.629 35.04V48ZM288.293 51.904C288.869 52.032 289.498 52.096 290.181 52.096C290.863 52.096 291.45 51.904 291.941 51.52C292.453 51.1573 292.826 50.496 293.061 49.536L293.413 48H291.621L287.749 31.36H290.341L293.637 46.272H293.829L297.125 31.36H299.717L295.493 49.44C295.13 50.9973 294.543 52.1813 293.733 52.992C292.943 53.8027 291.674 54.208 289.925 54.208C289.114 54.208 288.378 54.0587 287.717 53.76L288.293 51.904Z" fill="white"/>
<path d="M51.2319 9.32031V21.0977C44.7605 15.9544 37.7683 13.3828 30.2553 13.3828C26.8959 13.3828 24.2787 14.2552 22.4037 16C20.5287 17.7318 19.5912 20.1471 19.5912 23.2461C19.5912 29.3398 23.2891 32.3867 30.685 32.3867C34.0704 32.3867 36.8113 31.6836 38.9076 30.2773V28.832L28.0287 22.5234H61.5248L51.7983 28.832V37.3477L45.8998 34.5352C40.379 36.3971 34.6628 37.3281 28.7514 37.3281C21.642 37.3281 15.6785 36 10.8608 33.3438C6.05607 30.6875 3.65373 27.3932 3.65373 23.4609C3.65373 19.3594 6.27743 15.8307 11.5248 12.875C16.7852 9.91927 23.0613 8.44141 30.3529 8.44141C36.5899 8.44141 41.935 9.61328 46.3881 11.957L51.2319 9.32031Z" fill="#24FF00"/>
<path d="M64.1977 46.9858V61.2631H12.225L21.9906 55.0912V40.853L12.225 34.603H45.5453L35.7797 40.853V55.9897H52.225L64.1977 46.9858Z" fill="#24FF00"/>
</svg>
