<svg width="40" height="40" viewBox="0 0 40 40" fill="none" xmlns="http://www.w3.org/2000/svg">
<path d="M37.2486 4.64288C34.7167 1.57148 31.6518 0 28.5202 0C24.9888 0 21.8573 2.28574 19.9916 6.0714C18.1926 2.28566 14.9945 0 11.5298 0C8.33157 0 5.39986 1.5714 2.80133 4.64288C-0.26358 8.28574 -1.99596 16.5 4.00065 22.6429C6.79907 25.4286 19.392 39.6428 19.5253 39.7857C19.6585 39.9286 19.7917 40 19.9916 40C20.1915 40 20.3914 39.9286 20.5247 39.7143C20.658 39.5714 33.3175 25.4286 36.0493 22.5715C41.9792 16.4286 40.2469 8.21425 37.2486 4.64288ZM35.0499 21.6428C32.5846 24.1429 22.3237 35.6428 19.9917 38.2857C17.6597 35.5714 7.46542 24.1429 4.93357 21.5714C-0.463389 16.0714 1.06911 8.85719 3.80085 5.64291C6.13289 2.9286 8.79802 1.50008 11.5298 1.50008C14.8613 1.50008 17.8596 4.00011 19.392 8.14294C19.4587 8.35722 19.7252 8.57151 19.9917 8.57151C20.2582 8.57151 20.5248 8.35722 20.5914 8.14294C22.1239 4.07151 25.1222 1.50008 28.5203 1.50008C31.3187 1.50008 33.9172 2.8572 36.1826 5.71439C38.8477 8.85711 40.3801 16.1428 35.0499 21.6428Z" fill="white"/>
</svg>
